<svg width="148" height="182" viewBox="0 0 148 182" fill="none" xmlns="http://www.w3.org/2000/svg">
<mask id="mask0_4015_11456" style="mask-type:alpha" maskUnits="userSpaceOnUse" x="3" y="0" width="142" height="125">
<path d="M76.8137 106.107L86.4798 125H3L66.2689 0L120.641 106.107V47.0123H140.192V125H108.448L66.2689 42.7285L34.8541 106.107H76.8137Z" fill="white"/>
<rect x="116.906" y="25.6426" width="19.3322" height="19.3322" transform="rotate(-45 116.906 25.6426)" fill="white"/>
</mask>
<g mask="url(#mask0_4015_11456)">
<rect x="-29.623" y="-46.9023" width="221.661" height="223.418" fill="url(#paint0_linear_4015_11456)"/>
</g>
<path d="M1.8 161V133H12.28C14.52 133 16.3733 133.387 17.84 134.16C19.3333 134.933 20.44 135.973 21.16 137.28C21.88 138.56 22.24 139.987 22.24 141.56C22.24 143.053 21.88 144.453 21.16 145.76C20.4667 147.04 19.3733 148.08 17.88 148.88C16.4133 149.653 14.52 150.04 12.2 150.04H7.2V161H1.8ZM16.32 161L10.56 148.68H16.4L22.48 161H16.32ZM7.2 146.12H11.92C13.5733 146.12 14.7867 145.72 15.56 144.92C16.3333 144.12 16.72 143.067 16.72 141.76C16.72 140.453 16.3333 139.427 15.56 138.68C14.7867 137.907 13.5733 137.52 11.92 137.52H7.2V146.12ZM24.8859 161V133H43.3259V137.36H30.2859V144.68H42.1259V148.88H30.2859V156.64H43.3259V161H24.8859ZM56.1313 161.48C54.1046 161.48 52.2913 161.133 50.6913 160.44C49.1179 159.747 47.8779 158.733 46.9713 157.4C46.0646 156.067 45.5846 154.453 45.5313 152.56H51.2513C51.2779 153.387 51.4779 154.133 51.8513 154.8C52.2513 155.467 52.8113 156 53.5313 156.4C54.2513 156.773 55.1179 156.96 56.1313 156.96C56.9579 156.96 57.6913 156.84 58.3313 156.6C58.9713 156.333 59.4646 155.96 59.8113 155.48C60.1846 154.973 60.3713 154.347 60.3713 153.6C60.3713 152.8 60.1713 152.133 59.7713 151.6C59.3979 151.067 58.8646 150.613 58.1713 150.24C57.4779 149.84 56.6913 149.493 55.8113 149.2C54.9579 148.88 54.0646 148.56 53.1313 148.24C50.8646 147.467 49.1313 146.467 47.9313 145.24C46.7579 144.013 46.1713 142.4 46.1713 140.4C46.1713 138.773 46.5713 137.373 47.3713 136.2C48.1713 135.027 49.2913 134.12 50.7313 133.48C52.1713 132.84 53.8113 132.52 55.6513 132.52C57.5446 132.52 59.2113 132.853 60.6513 133.52C62.0913 134.16 63.2246 135.093 64.0513 136.32C64.8779 137.547 65.3179 138.987 65.3713 140.64H59.5713C59.5446 139.92 59.3579 139.293 59.0113 138.76C58.6913 138.227 58.2246 137.8 57.6113 137.48C57.0246 137.16 56.3313 137 55.5313 137C54.8379 136.973 54.1979 137.08 53.6113 137.32C53.0513 137.533 52.6113 137.867 52.2913 138.32C51.9713 138.747 51.8113 139.32 51.8113 140.04C51.8113 140.707 51.9579 141.267 52.2513 141.72C52.5713 142.173 53.0113 142.573 53.5713 142.92C54.1579 143.24 54.8379 143.56 55.6113 143.88C56.4113 144.173 57.3046 144.493 58.2913 144.84C59.7046 145.32 60.9979 145.893 62.1713 146.56C63.3446 147.2 64.2779 148.04 64.9713 149.08C65.6913 150.12 66.0513 151.467 66.0513 153.12C66.0513 154.613 65.6646 156 64.8913 157.28C64.1446 158.533 63.0379 159.547 61.5713 160.32C60.1046 161.093 58.2913 161.48 56.1313 161.48ZM79.7503 161.48C77.697 161.48 75.8303 161.067 74.1503 160.24C72.4703 159.413 71.137 158.173 70.1503 156.52C69.1636 154.867 68.6703 152.76 68.6703 150.2V133H74.0703V150.24C74.0703 151.627 74.297 152.8 74.7503 153.76C75.2036 154.693 75.8703 155.387 76.7503 155.84C77.6303 156.293 78.6703 156.52 79.8703 156.52C81.097 156.52 82.137 156.293 82.9903 155.84C83.8436 155.387 84.497 154.693 84.9503 153.76C85.4303 152.8 85.6703 151.627 85.6703 150.24V133H91.0703V150.2C91.0703 152.76 90.5503 154.867 89.5103 156.52C88.497 158.173 87.137 159.413 85.4303 160.24C83.7236 161.067 81.8303 161.48 79.7503 161.48ZM94.4563 161V133H101.576L109.536 151.56H109.696L117.576 133H124.656V161H119.256V141.48H119.096L112.296 157H106.736L100.016 141.48H99.8563V161H94.4563ZM128.245 161V133H146.685V137.36H133.645V144.68H145.485V148.88H133.645V156.64H146.685V161H128.245Z" fill="url(#paint1_linear_4015_11456)"/>
<defs>
<linearGradient id="paint0_linear_4015_11456" x1="15.5219" y1="3.73474" x2="143.598" y2="131.81" gradientUnits="userSpaceOnUse">
<stop stop-color="#0D9488"/>
<stop offset="1" stop-color="#0369A1"/>
</linearGradient>
<linearGradient id="paint1_linear_4015_11456" x1="0" y1="147.5" x2="148" y2="147.5" gradientUnits="userSpaceOnUse">
<stop stop-color="#0B8C8C"/>
<stop offset="1" stop-color="#036B9F"/>
</linearGradient>
</defs>
</svg>
